# Blender v2.79 (sub 0) OBJ File: 'gem2.blend'
# www.blender.org
mtllib gem2.mtl
o Cube
v -0.000000 -0.655730 0.000000
v 0.055434 -0.544863 -0.055434
v 0.055434 -0.544863 0.055434
v -0.055434 -0.544863 0.055434
v -0.055434 -0.544863 -0.055434
v 0.206671 0.147942 0.000000
v -0.000000 0.147942 0.206671
v 0.000000 0.147942 -0.206671
v -0.206671 0.147942 -0.000000
v 0.146138 0.328036 -0.146138
v 0.146138 0.328036 0.146138
v -0.146138 0.328036 -0.146138
v -0.146138 0.328036 0.146138
v -0.000000 0.557365 0.000000
vn 0.8944 -0.4472 0.0000
vn -0.0000 -0.4472 0.8944
vn -0.8944 -0.4472 -0.0000
vn 0.0000 -0.4472 -0.8944
vn -0.9770 -0.2133 -0.0000
vn -0.0000 -0.2133 0.9770
vn 0.9770 -0.2133 0.0000
vn 0.0000 -0.2133 -0.9770
vn 0.6996 -0.1454 0.6996
vn -0.6996 -0.1454 0.6996
vn -0.6996 -0.1454 -0.6996
vn 0.6996 -0.1454 -0.6996
vn 0.0000 0.4506 -0.8927
vn 0.8927 0.4506 0.0000
vn -0.0000 0.4506 0.8927
vn -0.8927 0.4506 -0.0000
usemtl Material
s off
f 1//1 2//1 3//1
f 1//2 3//2 4//2
f 1//3 4//3 5//3
f 2//4 1//4 5//4
f 4//5 9//5 5//5
f 3//6 7//6 4//6
f 2//7 6//7 3//7
f 5//8 8//8 2//8
f 7//9 3//9 6//9 11//9
f 9//10 4//10 7//10 13//10
f 5//11 9//11 12//11 8//11
f 2//12 8//12 10//12 6//12
f 12//13 14//13 10//13 8//13
f 6//14 10//14 14//14 11//14
f 7//15 11//15 14//15 13//15
f 9//16 13//16 14//16 12//16
