# Blender v2.79 (sub 0) OBJ File: 'Jump.blend'
# www.blender.org
mtllib Jump.mtl
o Torus
v 0.491354 0.370139 -0.068419
v 0.462065 0.428814 -0.068419
v 0.391354 0.453118 -0.068419
v 0.320643 0.428814 -0.068419
v 0.291354 0.370139 -0.068419
v 0.320643 0.311464 -0.068419
v 0.391354 0.287160 -0.068419
v 0.462065 0.311464 -0.068419
v 0.424367 0.469714 -0.318419
v 0.399001 0.528389 -0.303774
v 0.337764 0.552693 -0.268419
v 0.276527 0.528389 -0.233064
v 0.251162 0.469714 -0.218419
v 0.276527 0.411039 -0.233064
v 0.337764 0.386735 -0.268419
v 0.399001 0.411039 -0.303774
v 0.241354 0.536097 -0.501432
v 0.226709 0.594773 -0.476066
v 0.191354 0.619077 -0.414829
v 0.155999 0.594773 -0.353592
v 0.141354 0.536097 -0.328227
v 0.155999 0.477422 -0.353592
v 0.191354 0.453118 -0.414829
v 0.226709 0.477422 -0.476066
v -0.008646 0.602481 -0.568419
v -0.008646 0.661156 -0.539130
v -0.008646 0.685460 -0.468419
v -0.008646 0.661156 -0.397708
v -0.008646 0.602481 -0.368419
v -0.008646 0.543806 -0.397708
v -0.008646 0.519502 -0.468419
v -0.008646 0.543806 -0.539130
v -0.258646 0.668864 -0.501432
v -0.244001 0.727539 -0.476066
v -0.208646 0.751843 -0.414829
v -0.173291 0.727539 -0.353592
v -0.158646 0.668864 -0.328227
v -0.173291 0.610189 -0.353592
v -0.208646 0.585885 -0.414829
v -0.244001 0.610189 -0.476066
v -0.441659 0.735248 -0.318419
v -0.416293 0.793923 -0.303774
v -0.355056 0.818227 -0.268419
v -0.293819 0.793923 -0.233064
v -0.268454 0.735248 -0.218419
v -0.293819 0.676572 -0.233064
v -0.355056 0.652268 -0.268419
v -0.416293 0.676572 -0.303774
v -0.508646 -0.028161 -0.068419
v -0.479357 0.030514 -0.068419
v -0.408646 0.054818 -0.068419
v -0.337935 0.030514 -0.068419
v -0.308646 -0.028161 -0.068419
v -0.337935 -0.086836 -0.068419
v -0.408646 -0.111141 -0.068419
v -0.457860 0.721479 -0.067961
v -0.441659 0.005030 0.181581
v -0.416293 0.063706 0.166936
v -0.355056 0.088010 0.131581
v -0.293819 0.063706 0.096226
v -0.268454 0.005030 0.081581
v -0.293819 -0.053645 0.096226
v -0.355056 -0.077949 0.131581
v -0.416293 -0.053645 0.166936
v -0.258646 0.071414 0.364594
v -0.244001 0.130089 0.339228
v -0.208646 0.154393 0.277991
v -0.173291 0.130089 0.216754
v -0.158646 0.071414 0.191389
v -0.173291 0.012739 0.216754
v -0.208646 -0.011565 0.277991
v -0.244001 0.012739 0.339228
v -0.008646 0.137797 0.431581
v -0.008646 0.196472 0.402292
v -0.008646 0.220776 0.331581
v -0.008646 0.196472 0.260870
v -0.008646 0.137797 0.231581
v -0.008646 0.079122 0.260870
v -0.008646 0.054818 0.331581
v -0.008646 0.079122 0.402292
v 0.241354 0.204181 0.364594
v 0.226709 0.262856 0.339228
v 0.191354 0.287160 0.277991
v 0.155999 0.262856 0.216754
v 0.141354 0.204181 0.191389
v 0.155999 0.145505 0.216754
v 0.191354 0.121201 0.277991
v 0.226709 0.145505 0.339228
v 0.424367 0.270564 0.181581
v 0.399001 0.329239 0.166936
v 0.337764 0.353543 0.131581
v 0.276527 0.329239 0.096226
v 0.251162 0.270564 0.081581
v 0.276527 0.211889 0.096226
v 0.337764 0.187585 0.131581
v 0.399001 0.211889 0.166936
v -0.299137 0.840705 -0.054059
v -0.269847 0.782030 -0.054059
v -0.457860 0.838829 -0.067961
v -0.387149 0.863133 -0.067961
v -0.299137 0.723354 -0.054059
v -0.487149 0.780154 -0.067961
v -0.479357 -0.086836 -0.068419
v -0.387149 0.697175 -0.067961
v 0.528902 1.202796 -0.039699
v 0.465008 1.257720 -0.067503
v 0.394297 1.282024 -0.067503
v 0.323587 1.257720 -0.067503
v 0.294297 1.199045 -0.067503
v 0.323587 1.140370 -0.067503
v 0.394297 1.116066 -0.067503
v 0.499612 1.144121 -0.039699
v 0.461914 1.302371 -0.289699
v 0.436549 1.361047 -0.275055
v 0.340708 1.381599 -0.267503
v 0.279470 1.357295 -0.232148
v 0.254105 1.298620 -0.217503
v 0.279470 1.239945 -0.232148
v 0.340708 1.215641 -0.267503
v 0.436549 1.243696 -0.275055
v 0.278902 1.368755 -0.472712
v 0.264257 1.427430 -0.447347
v 0.194297 1.447982 -0.413914
v 0.158942 1.423678 -0.352676
v 0.144297 1.365003 -0.327311
v 0.158942 1.306328 -0.352676
v 0.194297 1.282024 -0.413914
v 0.264257 1.310080 -0.447347
v -0.005703 1.431387 -0.567503
v -0.005703 1.490062 -0.538214
v 0.028902 1.518117 -0.439699
v -0.005703 1.490062 -0.396793
v -0.005703 1.431387 -0.367503
v -0.005703 1.372711 -0.396793
v -0.005703 1.348407 -0.467503
v -0.005703 1.372711 -0.538214
v -0.255702 1.497770 -0.500516
v -0.241058 1.556445 -0.475151
v -0.205702 1.580749 -0.413914
v -0.135743 1.560197 -0.324872
v -0.121098 1.501521 -0.299507
v -0.170347 1.439095 -0.352676
v -0.205702 1.414791 -0.413914
v -0.241058 1.439095 -0.475151
v -0.438715 1.564153 -0.317504
v -0.413350 1.622828 -0.302859
v -0.352113 1.647133 -0.267503
v -0.290875 1.622828 -0.232148
v -0.265510 1.564153 -0.217503
v -0.290875 1.505478 -0.232148
v -0.352113 1.481174 -0.267503
v -0.413350 1.505478 -0.302859
v -0.476413 1.571862 -0.067503
v -0.438715 0.833936 0.182496
v -0.413350 0.892611 0.167852
v -0.352113 0.916915 0.132497
v -0.290876 0.892611 0.097141
v -0.230906 0.837688 0.110301
v -0.256271 0.779012 0.124945
v -0.352113 0.750957 0.132497
v -0.413350 0.775261 0.167852
v -0.255702 0.900319 0.365509
v -0.241058 0.958995 0.340144
v -0.205702 0.983299 0.278907
v -0.170347 0.958995 0.217670
v -0.121098 0.904071 0.220108
v -0.135743 0.845396 0.245474
v -0.171098 0.821092 0.306711
v -0.241058 0.841644 0.340144
v -0.005703 0.966703 0.432497
v -0.005703 1.025378 0.403207
v -0.005703 1.049682 0.332497
v -0.005703 1.025378 0.261786
v -0.005703 0.966703 0.232497
v 0.028902 0.911779 0.289590
v 0.028902 0.887475 0.360301
v -0.005703 0.908028 0.403207
v 0.244297 1.033086 0.365509
v 0.229653 1.091761 0.340144
v 0.194297 1.116066 0.278907
v 0.158942 1.091761 0.217670
v 0.144297 1.033086 0.192304
v 0.158942 0.974411 0.217670
v 0.228902 0.953859 0.306711
v 0.264257 0.978163 0.367948
v 0.461914 1.103221 0.210301
v 0.401945 1.158145 0.167852
v 0.340708 1.182449 0.132497
v 0.279470 1.158145 0.097141
v 0.254105 1.099470 0.082497
v 0.279470 1.040794 0.097141
v 0.340708 1.016490 0.132497
v 0.436549 1.044546 0.195656
v -0.334992 1.689212 -0.067503
v -0.305703 1.630537 -0.067503
v -0.476413 1.689212 -0.067503
v -0.405703 1.713516 -0.067503
v -0.334992 1.571862 -0.067503
v -0.505703 1.630537 -0.067503
v -0.405703 1.547557 -0.067503
vn 0.9014 0.4280 -0.0659
vn 0.3984 0.8698 0.2911
vn -0.1748 0.8437 0.5076
vn -0.7745 0.4198 0.4732
vn -0.9073 -0.4198 -0.0226
vn -0.4052 -0.8437 -0.3522
vn 0.1995 -0.8698 -0.4513
vn 0.8135 -0.4280 -0.3936
vn 0.7134 0.4315 -0.5522
vn 0.4175 0.9078 -0.0393
vn -0.0026 0.8943 0.4474
vn -0.5039 0.4277 0.7504
vn -0.7504 -0.4277 0.5039
vn -0.4474 -0.8943 0.0026
vn 0.0393 -0.9078 -0.4175
vn 0.5522 -0.4315 -0.7134
vn 0.3417 0.4315 -0.8349
vn 0.3419 0.9078 -0.2428
vn 0.2214 0.8943 0.3888
vn -0.0612 0.4277 0.9019
vn -0.3979 -0.4277 0.8116
vn -0.3862 -0.8943 0.2260
vn -0.1747 -0.9078 -0.3812
vn 0.1215 -0.4315 -0.8939
vn -0.1215 0.4315 -0.8939
vn 0.1747 0.9078 -0.3812
vn 0.3862 0.8943 0.2260
vn 0.3979 0.4277 0.8116
vn 0.0612 -0.4277 0.9019
vn -0.2214 -0.8943 0.3888
vn -0.3419 -0.9078 -0.2428
vn -0.3417 -0.4315 -0.8349
vn -0.5522 0.4315 -0.7134
vn -0.0393 0.9078 -0.4175
vn 0.4474 0.8943 0.0026
vn 0.7504 0.4277 0.5039
vn 0.5039 -0.4277 0.7504
vn 0.0026 -0.8943 0.4474
vn -0.4175 -0.9078 -0.0393
vn -0.7134 -0.4315 -0.5522
vn -0.8693 0.4343 -0.2359
vn -0.2788 0.9303 -0.2386
vn 0.3493 0.9181 -0.1874
vn 0.9069 0.4106 -0.0942
vn 0.8916 -0.4321 0.1352
vn 0.2351 -0.9392 0.2501
vn -0.3725 -0.9194 0.1264
vn -0.8995 -0.4291 -0.0818
vn -0.8835 0.4336 0.1774
vn -0.3563 0.9332 -0.0468
vn 0.2772 0.9295 -0.2435
vn 0.8439 0.4326 -0.3174
vn 0.8895 -0.4326 -0.1471
vn 0.3618 -0.9295 0.0723
vn -0.2852 -0.9332 0.2187
vn -0.8538 -0.4336 0.2881
vn -0.7134 0.4315 0.5522
vn -0.4175 0.9078 0.0393
vn 0.0026 0.8943 -0.4474
vn 0.5039 0.4277 -0.7504
vn 0.7504 -0.4277 -0.5039
vn 0.4474 -0.8943 -0.0026
vn -0.0393 -0.9078 0.4175
vn -0.5522 -0.4315 0.7134
vn -0.3417 0.4315 0.8349
vn -0.3419 0.9078 0.2428
vn -0.2214 0.8943 -0.3888
vn 0.0612 0.4277 -0.9019
vn 0.3979 -0.4277 -0.8116
vn 0.3862 -0.8943 -0.2260
vn 0.1747 -0.9078 0.3812
vn -0.1215 -0.4315 0.8939
vn 0.1215 0.4315 0.8939
vn -0.1747 0.9078 0.3812
vn -0.3862 0.8943 -0.2260
vn -0.3979 0.4277 -0.8116
vn -0.0612 -0.4277 -0.9019
vn 0.2214 -0.8943 -0.3888
vn 0.3419 -0.9078 0.2428
vn 0.3417 -0.4315 0.8349
vn 0.5522 0.4315 0.7134
vn 0.0393 0.9078 0.4175
vn -0.4474 0.8943 -0.0026
vn -0.7504 0.4277 -0.5039
vn -0.5039 -0.4277 -0.7504
vn -0.0026 -0.8943 -0.4474
vn 0.4175 -0.9078 0.0393
vn 0.7134 -0.4315 0.5522
vn 0.8135 0.4280 0.3936
vn 0.1995 0.8698 0.4513
vn -0.4052 0.8437 0.3522
vn -0.9073 0.4198 0.0226
vn -0.7745 -0.4198 -0.4732
vn -0.1748 -0.8437 -0.5076
vn 0.3984 -0.8698 -0.2911
vn 0.9014 -0.4280 0.0659
vn 0.7747 0.6219 0.1142
vn 0.2560 0.8849 0.3890
vn 0.2812 -0.8419 -0.4605
vn 0.2686 0.9546 0.1291
vn 0.1594 -0.8445 -0.5112
vn 0.3724 0.4296 -0.8226
vn 0.2167 0.8060 0.5508
vn -0.0861 -0.8657 -0.4931
vn 0.1963 -0.4340 -0.8793
vn 0.1785 0.9092 -0.3762
vn 0.6148 0.3947 0.6828
vn 0.0466 -0.5751 0.8168
vn 0.3619 0.9311 -0.0460
vn 0.5824 0.4331 0.6879
vn 0.2842 -0.5957 0.7512
vn -0.8349 0.4315 -0.3417
vn -0.2428 0.9078 -0.3419
vn 0.3888 0.8943 -0.2214
vn 0.9019 0.4277 0.0612
vn 0.8116 -0.4277 0.3979
vn 0.2260 -0.8943 0.3862
vn -0.3812 -0.9078 0.1747
vn -0.8939 -0.4315 -0.1215
vn -0.9001 0.4288 0.0772
vn -0.3780 0.9126 -0.1561
vn 0.2440 0.9200 -0.3066
vn 0.7652 0.5657 -0.3073
vn 0.9003 -0.4287 -0.0755
vn 0.2694 -0.9386 0.2154
vn -0.2662 -0.9235 0.2762
vn -0.8623 -0.4341 0.2608
vn 0.5174 0.4076 -0.7524
vn 0.3853 -0.9222 0.0329
vn -0.0791 -0.8973 0.4342
vn 0.0745 0.2599 -0.9628
vn 0.3857 -0.4966 -0.7776
vn 0.0959 -0.8157 0.5705
vn -0.0439 -0.5993 -0.7993
vn 0.2215 -0.9093 -0.3523
vn 0.3231 -0.8700 0.3724
vn 0.2360 -0.1841 0.9542
vn 0.3510 0.6391 0.6843
vn 0.0388 -0.9263 -0.3749
vn 0.3896 -0.9207 -0.0234
vn 0.6617 -0.1112 0.7415
vn 0.4436 0.7812 0.4394
vn 0.3794 -0.8756 -0.2989
vn -0.0000 -0.0000 1.0000
vn 0.0000 0.0000 -1.0000
usemtl Metal
s off
f 1//1 9//1 10//1 2//1
f 2//2 10//2 11//2 3//2
f 3//3 11//3 12//3 4//3
f 4//4 12//4 13//4 5//4
f 5//5 13//5 14//5 6//5
f 6//6 14//6 15//6 7//6
f 7//7 15//7 16//7 8//7
f 8//8 16//8 9//8 1//8
f 9//9 17//9 18//9 10//9
f 10//10 18//10 19//10 11//10
f 11//11 19//11 20//11 12//11
f 12//12 20//12 21//12 13//12
f 13//13 21//13 22//13 14//13
f 14//14 22//14 23//14 15//14
f 15//15 23//15 24//15 16//15
f 16//16 24//16 17//16 9//16
f 17//17 25//17 26//17 18//17
f 18//18 26//18 27//18 19//18
f 19//19 27//19 28//19 20//19
f 20//20 28//20 29//20 21//20
f 21//21 29//21 30//21 22//21
f 22//22 30//22 31//22 23//22
f 23//23 31//23 32//23 24//23
f 24//24 32//24 25//24 17//24
f 25//25 33//25 34//25 26//25
f 26//26 34//26 35//26 27//26
f 27//27 35//27 36//27 28//27
f 28//28 36//28 37//28 29//28
f 29//29 37//29 38//29 30//29
f 30//30 38//30 39//30 31//30
f 31//31 39//31 40//31 32//31
f 32//32 40//32 33//32 25//32
f 33//33 41//33 42//33 34//33
f 34//34 42//34 43//34 35//34
f 35//35 43//35 44//35 36//35
f 36//36 44//36 45//36 37//36
f 37//37 45//37 46//37 38//37
f 38//38 46//38 47//38 39//38
f 39//39 47//39 48//39 40//39
f 40//40 48//40 41//40 33//40
f 41//41 102//41 99//41 42//41
f 42//42 99//42 100//42 43//42
f 43//43 100//43 97//43 44//43
f 44//44 97//44 98//44 45//44
f 45//45 98//45 101//45 46//45
f 46//46 101//46 104//46 47//46
f 47//47 104//47 56//47 48//47
f 48//48 56//48 102//48 41//48
f 49//49 57//49 58//49 50//49
f 50//50 58//50 59//50 51//50
f 51//51 59//51 60//51 52//51
f 52//52 60//52 61//52 53//52
f 53//53 61//53 62//53 54//53
f 54//54 62//54 63//54 55//54
f 55//55 63//55 64//55 103//55
f 103//56 64//56 57//56 49//56
f 57//57 65//57 66//57 58//57
f 58//58 66//58 67//58 59//58
f 59//59 67//59 68//59 60//59
f 60//60 68//60 69//60 61//60
f 61//61 69//61 70//61 62//61
f 62//62 70//62 71//62 63//62
f 63//63 71//63 72//63 64//63
f 64//64 72//64 65//64 57//64
f 65//65 73//65 74//65 66//65
f 66//66 74//66 75//66 67//66
f 67//67 75//67 76//67 68//67
f 68//68 76//68 77//68 69//68
f 69//69 77//69 78//69 70//69
f 70//70 78//70 79//70 71//70
f 71//71 79//71 80//71 72//71
f 72//72 80//72 73//72 65//72
f 73//73 81//73 82//73 74//73
f 74//74 82//74 83//74 75//74
f 75//75 83//75 84//75 76//75
f 76//76 84//76 85//76 77//76
f 77//77 85//77 86//77 78//77
f 78//78 86//78 87//78 79//78
f 79//79 87//79 88//79 80//79
f 80//80 88//80 81//80 73//80
f 81//81 89//81 90//81 82//81
f 82//82 90//82 91//82 83//82
f 83//83 91//83 92//83 84//83
f 84//84 92//84 93//84 85//84
f 85//85 93//85 94//85 86//85
f 86//86 94//86 95//86 87//86
f 87//87 95//87 96//87 88//87
f 88//88 96//88 89//88 81//88
f 89//89 1//89 2//89 90//89
f 90//90 2//90 3//90 91//90
f 91//91 3//91 4//91 92//91
f 92//92 4//92 5//92 93//92
f 93//93 5//93 6//93 94//93
f 94//94 6//94 7//94 95//94
f 95//95 7//95 8//95 96//95
f 96//96 8//96 1//96 89//96
f 105//97 113//97 114//97 106//97
f 106//98 114//98 115//98 107//98
f 107//3 115//3 116//3 108//3
f 108//4 116//4 117//4 109//4
f 109//5 117//5 118//5 110//5
f 110//6 118//6 119//6 111//6
f 111//99 119//99 120//99 112//99
f 112//8 120//8 113//8 105//8
f 113//9 121//9 122//9 114//9
f 114//100 122//100 123//100 115//100
f 115//11 123//11 124//11 116//11
f 116//12 124//12 125//12 117//12
f 117//13 125//13 126//13 118//13
f 118//14 126//14 127//14 119//14
f 119//101 127//101 128//101 120//101
f 120//16 128//16 121//16 113//16
f 121//102 129//102 130//102 122//102
f 122//18 130//18 131//18 123//18
f 123//103 131//103 132//103 124//103
f 124//20 132//20 133//20 125//20
f 125//21 133//21 134//21 126//21
f 126//22 134//22 135//22 127//22
f 127//104 135//104 136//104 128//104
f 128//105 136//105 129//105 121//105
f 129//25 137//25 138//25 130//25
f 130//106 138//106 139//106 131//106
f 131//27 139//27 140//27 132//27
f 132//107 140//107 141//107 133//107
f 133//108 141//108 142//108 134//108
f 134//30 142//30 143//30 135//30
f 135//31 143//31 144//31 136//31
f 136//32 144//32 137//32 129//32
f 137//33 145//33 146//33 138//33
f 138//34 146//34 147//34 139//34
f 139//109 147//109 148//109 140//109
f 140//110 148//110 149//110 141//110
f 141//111 149//111 150//111 142//111
f 142//38 150//38 151//38 143//38
f 143//39 151//39 152//39 144//39
f 144//40 152//40 145//40 137//40
f 145//112 199//112 196//112 146//112
f 146//113 196//113 197//113 147//113
f 147//114 197//114 194//114 148//114
f 148//115 194//115 195//115 149//115
f 149//116 195//116 198//116 150//116
f 150//117 198//117 200//117 151//117
f 151//118 200//118 153//118 152//118
f 152//119 153//119 199//119 145//119
f 102//120 154//120 155//120 99//120
f 99//121 155//121 156//121 100//121
f 100//122 156//122 157//122 97//122
f 97//123 157//123 158//123 98//123
f 98//124 158//124 159//124 101//124
f 101//125 159//125 160//125 104//125
f 104//126 160//126 161//126 56//126
f 56//127 161//127 154//127 102//127
f 154//57 162//57 163//57 155//57
f 155//58 163//58 164//58 156//58
f 156//59 164//59 165//59 157//59
f 157//128 165//128 166//128 158//128
f 158//61 166//61 167//61 159//61
f 159//129 167//129 168//129 160//129
f 160//130 168//130 169//130 161//130
f 161//64 169//64 162//64 154//64
f 162//65 170//65 171//65 163//65
f 163//66 171//66 172//66 164//66
f 164//67 172//67 173//67 165//67
f 165//131 173//131 174//131 166//131
f 166//132 174//132 175//132 167//132
f 167//70 175//70 176//70 168//70
f 168//133 176//133 177//133 169//133
f 169//72 177//72 170//72 162//72
f 170//73 178//73 179//73 171//73
f 171//74 179//74 180//74 172//74
f 172//75 180//75 181//75 173//75
f 173//76 181//76 182//76 174//76
f 174//134 182//134 183//134 175//134
f 175//135 183//135 184//135 176//135
f 176//136 184//136 185//136 177//136
f 177//137 185//137 178//137 170//137
f 178//138 186//138 187//138 179//138
f 179//82 187//82 188//82 180//82
f 180//83 188//83 189//83 181//83
f 181//84 189//84 190//84 182//84
f 182//85 190//85 191//85 183//85
f 183//139 191//139 192//139 184//139
f 184//140 192//140 193//140 185//140
f 185//141 193//141 186//141 178//141
f 186//142 105//142 106//142 187//142
f 187//90 106//90 107//90 188//90
f 188//91 107//91 108//91 189//91
f 189//92 108//92 109//92 190//92
f 190//93 109//93 110//93 191//93
f 191//94 110//94 111//94 192//94
f 192//143 111//143 112//143 193//143
f 193//96 112//96 105//96 186//96
f 195//144 194//144 197//144 196//144 199//144 153//144 200//144 198//144
f 53//145 54//145 55//145 103//145 49//145 50//145 51//145 52//145
o Cone.001_Cone.003
v -0.789301 1.785297 -0.509820
v 0.016322 2.585297 -0.104196
v 0.821946 1.785297 -0.509819
v 0.821945 1.785297 0.301427
v -0.789301 1.785297 0.301427
v -0.178407 0.157860 0.117949
v -0.178407 1.757860 0.117949
v -0.178407 0.157860 -0.248657
v -0.178407 1.757860 -0.248657
v 0.214126 0.157860 0.117949
v 0.214126 1.757860 0.117949
v 0.214126 0.157860 -0.248657
v 0.214126 1.757860 -0.248657
vn 0.0000 0.4522 -0.8919
vn 0.7046 0.7096 0.0000
vn 0.0000 0.4522 0.8919
vn -0.7046 0.7096 0.0000
vn -1.0000 0.0000 0.0000
vn -0.0000 0.0000 -1.0000
vn 1.0000 0.0000 -0.0000
vn 0.0000 0.0000 1.0000
vn 0.0000 -1.0000 0.0000
vn 0.0000 -0.9890 0.1479
vn 0.0451 -0.9990 0.0000
vn 0.0000 -0.9945 -0.1045
vn -0.0449 -0.9990 0.0000
usemtl Red.001
s off
f 201//146 202//146 203//146
f 203//147 202//147 204//147
f 204//148 202//148 205//148
f 205//149 202//149 201//149
f 206//150 207//150 209//150 208//150
f 208//151 209//151 213//151 212//151
f 212//152 213//152 211//152 210//152
f 210//153 211//153 207//153 206//153
f 208//154 212//154 210//154 206//154
f 205//155 207//155 211//155 204//155
f 204//156 211//156 213//156 203//156
f 203//157 213//157 209//157 201//157
f 201//158 209//158 207//158 205//158
